<svg width="235" height="235" viewBox="0 0 235 235" fill="none" xmlns="http://www.w3.org/2000/svg">
<path d="M113.706 21.105C121.035 14.8692 132.056 15.8679 138.145 23.3196C142.399 28.5261 149.299 30.7728 155.803 29.0692C165.112 26.6309 174.608 32.3126 176.861 41.6681C178.435 48.2048 183.677 53.2229 190.276 54.51C199.721 56.3521 205.811 65.5913 203.782 74.9977C202.363 81.5699 204.909 88.3654 210.296 92.3883C218.006 98.146 219.485 109.113 213.575 116.707C209.446 122.013 208.791 129.24 211.899 135.202C216.348 143.735 212.922 154.257 204.302 158.535C198.279 161.524 194.553 167.751 194.767 174.471C195.073 184.089 187.42 192.083 177.798 192.197C171.075 192.277 165.017 196.271 162.293 202.418C158.396 211.217 148.033 215.099 139.314 211.027C133.222 208.182 126.03 209.151 120.91 213.508C113.581 219.744 102.56 218.745 96.471 211.293C92.2169 206.087 85.3168 203.84 78.8127 205.544C69.5039 207.982 60.0077 202.3 57.7552 192.945C56.1814 186.408 50.9393 181.39 44.3402 180.103C34.8953 178.261 28.8047 169.022 30.8345 159.615C32.2527 153.043 29.707 146.248 24.3199 142.225C16.6096 136.467 15.1309 125.5 21.0409 117.906C25.1703 112.6 25.8252 105.373 22.717 99.411C18.2685 90.8781 21.6946 80.3557 30.3143 76.0779C36.3369 73.089 40.0627 66.8618 39.849 60.1417C39.5433 50.5237 47.1956 42.5299 56.8178 42.4156C63.5408 42.3358 69.5995 38.3419 72.3228 32.1946C76.2204 23.3964 86.5833 19.5145 95.3022 23.5864C101.394 26.4315 108.586 25.4619 113.706 21.105Z" fill="#BDFF00"/>
<g clip-path="url(#clip0_2350_428)">
<path d="M142.89 42.5198L142.673 43.2335L139.325 42.2158L138.712 44.2461L141.642 45.1403L141.425 45.854L138.495 44.9598L137.611 47.8799L136.758 47.6216L138.699 41.2353L142.891 42.5104L142.89 42.5198Z" fill="#1D1D1B"/>
<path d="M145.005 43.3022L142.883 48.8341L146.18 50.0948L145.917 50.7948L141.792 49.2113L144.186 42.9804L145.015 43.2936L145.005 43.3022Z" fill="#1D1D1B"/>
<path d="M148.379 46.7796C148.685 46.4549 149.022 46.2092 149.409 46.0348C149.787 45.8595 150.205 45.7735 150.644 45.7657C151.082 45.7673 151.548 45.8763 152.023 46.1097C152.497 46.3432 152.881 46.6257 153.154 46.9742C153.428 47.3228 153.622 47.7024 153.718 48.1111C153.815 48.5199 153.843 48.9415 153.775 49.383C153.716 49.8158 153.583 50.2418 153.383 50.6523C153.184 51.0629 152.932 51.4305 152.636 51.7466C152.33 52.0713 151.994 52.317 151.606 52.4914C151.219 52.6658 150.811 52.7526 150.373 52.751C149.934 52.7494 149.469 52.631 148.994 52.407C148.519 52.1735 148.135 51.8911 147.862 51.5425C147.588 51.1939 147.393 50.8238 147.297 50.415C147.201 50.0063 147.172 49.5846 147.241 49.1432C147.299 48.7104 147.433 48.2844 147.632 47.8739C147.831 47.4633 148.084 47.0957 148.379 46.7796ZM148.111 49.2126C148.043 49.5398 148.051 49.8738 148.099 50.183C148.156 50.5024 148.283 50.7901 148.477 51.0649C148.671 51.3396 148.947 51.5551 149.312 51.7311C149.677 51.907 150.023 51.9859 150.358 51.9687C150.693 51.9514 150.996 51.8646 151.277 51.7091C151.558 51.5536 151.815 51.3483 152.029 51.0915C152.242 50.8347 152.43 50.5564 152.581 50.2558C152.722 49.9543 152.828 49.6305 152.896 49.3033C152.964 48.9761 152.956 48.642 152.907 48.3329C152.851 48.0134 152.724 47.7258 152.53 47.451C152.336 47.1763 152.05 46.9599 151.695 46.7848C151.329 46.6089 150.984 46.5299 150.649 46.5472C150.314 46.5644 150.011 46.6513 149.73 46.8068C149.449 46.9623 149.192 47.1676 148.978 47.4244C148.764 47.6812 148.577 47.9595 148.426 48.2601C148.275 48.5607 148.179 48.8854 148.111 49.2126Z" fill="#1D1D1B"/>
<path d="M157.1 56.7704L158.757 51.2061L158.738 51.2043L154.474 55.1514L153.689 54.6613L155.752 48.086L156.519 48.565L154.704 53.9723L154.723 53.974L158.919 50.0492L159.741 50.5523L158.07 56.0488L158.089 56.0506L162.167 52.058L162.925 52.5267L157.895 57.252L157.11 56.7619L157.1 56.7704Z" fill="#1D1D1B"/>
<path d="M168.457 56.8854C168.98 57.3138 169.263 57.768 169.314 58.2584C169.365 58.7487 169.188 59.2279 168.792 59.7064C168.396 60.1848 167.953 60.4494 167.462 60.5002C166.972 60.551 166.474 60.363 165.952 59.9252L164.373 58.6297L162.638 60.7392L161.956 60.1726L166.196 55.0233L168.458 56.8759L168.457 56.8854ZM166.201 59.1668C166.592 59.4879 166.94 59.6433 167.255 59.6337C167.571 59.6148 167.852 59.4593 168.109 59.1492C168.366 58.8391 168.46 58.5334 168.412 58.2242C168.364 57.9151 168.144 57.6 167.754 57.2789L166.406 56.1757L164.853 58.0636L166.201 59.1668Z" fill="#1D1D1B"/>
<path d="M172.624 60.6253L169.918 67.2565L169.207 66.5825L170.061 64.6218L168.017 62.6745L166.093 63.6145L165.435 62.9929L171.914 59.9419L172.625 60.6158L172.624 60.6253ZM170.375 63.8883L171.716 60.8668L171.697 60.8651L168.735 62.33L170.375 63.8883Z" fill="#1D1D1B"/>
<path d="M177.351 65.5586C177.775 66.0352 177.989 66.5117 177.994 66.9789C177.999 67.4555 177.799 67.8755 177.395 68.2294C177.095 68.4974 176.765 68.6675 176.416 68.7312C176.067 68.7948 175.712 68.715 175.361 68.4927L175.351 68.4918C175.449 68.6721 175.511 68.8301 175.526 68.9839C175.541 69.1281 175.528 69.2698 175.487 69.409C175.446 69.5481 175.377 69.6752 175.29 69.8006C175.202 69.926 175.105 70.0506 174.999 70.1743C174.884 70.2876 174.768 70.4105 174.653 70.5239C174.528 70.6364 174.422 70.7601 174.314 70.8932C174.207 71.0263 174.119 71.1517 174.041 71.278C173.963 71.4043 173.911 71.552 173.889 71.6928L173.232 70.957C173.24 70.8626 173.287 70.7715 173.353 70.6727C173.419 70.574 173.513 70.4778 173.618 70.373C173.723 70.2682 173.837 70.1642 173.962 70.0422C174.088 69.9203 174.194 69.806 174.291 69.672C174.398 69.5484 174.486 69.4229 174.573 69.2975C174.661 69.1721 174.71 69.0433 174.741 68.9128C174.772 68.7822 174.766 68.6388 174.721 68.5014C174.677 68.364 174.596 68.2043 174.448 68.0481L173.003 66.4313L170.878 68.3246L170.29 67.6618L175.267 63.2173L177.361 65.5595L177.351 65.5586ZM175.212 67.7173C175.363 67.8357 175.518 67.9164 175.676 67.9593C175.834 68.0022 176.005 68.0082 176.171 67.9661C176.337 67.9239 176.517 67.826 176.694 67.6611C176.943 67.436 177.09 67.1826 177.124 66.9095C177.15 66.6261 177.034 66.3299 176.757 66.0191L175.286 64.3715L173.555 65.9194L174.783 67.2974C174.921 67.4528 175.061 67.5893 175.213 67.7078L175.212 67.7173Z" fill="#1D1D1B"/>
<path d="M178.578 68.108L179.172 67.657L182.409 71.8934L181.815 72.3444L180.461 70.5739L175.752 74.1664L175.216 73.4607L179.924 69.8681L178.57 68.0977L178.578 68.108Z" fill="#1D1D1B"/>
<path d="M178.976 78.7825L178.491 78.0337L180.78 76.5458L182.676 72.2317L183.254 73.1127L181.677 76.5224L185.402 76.4313L185.954 77.2814L181.255 77.2937L178.967 78.7816L178.976 78.7825Z" fill="#1D1D1B"/>
<path d="M185.649 84.5114L184.99 84.8517L183.749 82.4534L184.409 82.1132L185.649 84.5114Z" fill="#1D1D1B"/>
<path d="M192.392 90.7795L191.699 91.0596L190.392 87.8172L188.424 88.6103L189.567 91.4569L188.875 91.737L187.732 88.8905L184.893 90.0333L184.558 89.2124L190.748 86.7256L192.381 90.7881L192.392 90.7795Z" fill="#1D1D1B"/>
<path d="M193.104 92.9013L187.461 94.7138L188.547 98.0791L187.84 98.3103L186.487 94.1018L192.838 92.0581L193.114 92.9022L193.104 92.9013Z" fill="#1D1D1B"/>
<path d="M192.505 97.7046C192.94 97.744 193.349 97.8479 193.733 98.035C194.106 98.2212 194.435 98.4891 194.718 98.8291C195.002 99.1691 195.201 99.6062 195.316 100.121C195.431 100.637 195.445 101.114 195.349 101.544C195.253 101.973 195.075 102.357 194.816 102.695C194.557 103.034 194.246 103.31 193.863 103.533C193.481 103.755 193.076 103.919 192.627 104.03C192.179 104.142 191.738 104.169 191.303 104.129C190.868 104.09 190.459 103.986 190.075 103.799C189.702 103.613 189.373 103.345 189.1 102.996C188.827 102.648 188.627 102.22 188.502 101.704C188.378 101.188 188.373 100.711 188.469 100.282C188.565 99.8525 188.743 99.4686 188.993 99.1293C189.252 98.7909 189.563 98.5143 189.946 98.2918C190.328 98.0693 190.733 97.906 191.181 97.8037C191.628 97.7014 192.07 97.6653 192.505 97.7046ZM190.441 99.0225C190.141 99.1857 189.885 99.3816 189.673 99.6195C189.461 99.8575 189.311 100.139 189.225 100.465C189.138 100.79 189.135 101.142 189.232 101.542C189.329 101.941 189.481 102.259 189.697 102.508C189.922 102.757 190.172 102.941 190.475 103.064C190.769 103.186 191.087 103.253 191.429 103.265C191.771 103.277 192.098 103.24 192.429 103.165C192.76 103.09 193.066 102.975 193.366 102.812C193.667 102.648 193.923 102.452 194.135 102.215C194.347 101.977 194.497 101.695 194.583 101.369C194.67 101.044 194.673 100.692 194.576 100.292C194.479 99.8932 194.327 99.5746 194.111 99.3265C193.895 99.0783 193.636 98.8929 193.333 98.7702C193.039 98.6483 192.721 98.5814 192.379 98.5695C192.037 98.5575 191.709 98.5945 191.379 98.6693C191.048 98.7441 190.742 98.8593 190.441 99.0225Z" fill="#1D1D1B"/>
<path d="M190.186 110.772L195.569 108.573L195.571 108.555L189.815 107.709L189.698 106.794L196.11 104.279L196.22 105.175L190.867 107.147L190.865 107.166L196.567 107.969L196.681 108.922L191.35 111.068L191.348 111.086L197.024 111.753L197.136 112.63L190.294 111.677L190.177 110.761L190.186 110.772Z" fill="#1D1D1B"/>
<path d="M197.213 119.685C197.209 120.361 197.029 120.868 196.675 121.208C196.329 121.548 195.838 121.713 195.219 121.714C194.6 121.705 194.111 121.528 193.761 121.182C193.411 120.836 193.248 120.326 193.262 119.651L193.284 117.614L190.552 117.586L190.565 116.701L197.239 116.773L197.212 119.694L197.213 119.685ZM194.023 119.348C194.015 119.852 194.105 120.222 194.322 120.461C194.529 120.699 194.833 120.812 195.233 120.82C195.632 120.827 195.938 120.712 196.149 120.484C196.361 120.255 196.471 119.884 196.478 119.38L196.493 117.639L194.046 117.617L194.031 119.358L194.023 119.348Z" fill="#1D1D1B"/>
<path d="M196.917 125.249L190.066 127.352L190.135 126.377L192.198 125.802L192.405 122.992L190.456 122.101L190.52 121.192L196.987 124.274L196.917 125.249ZM192.962 125.576L196.148 124.693L196.15 124.674L193.129 123.315L192.963 125.566L192.962 125.576Z" fill="#1D1D1B"/>
<path d="M196.034 132.045C195.93 132.674 195.697 133.138 195.327 133.438C194.957 133.738 194.508 133.85 193.973 133.763C193.569 133.698 193.24 133.544 192.965 133.319C192.691 133.085 192.539 132.766 192.491 132.343L192.472 132.341C192.408 132.526 192.319 132.67 192.214 132.775C192.109 132.88 191.988 132.955 191.859 133.01C191.73 133.065 191.585 133.09 191.431 133.104C191.277 133.119 191.116 133.114 190.954 133.109C190.794 133.094 190.624 133.079 190.463 133.064C190.293 133.049 190.132 133.034 189.971 133.029C189.809 133.024 189.646 133.038 189.491 133.062C189.337 133.086 189.199 133.13 189.078 133.205L189.243 132.23C189.323 132.18 189.421 132.151 189.536 132.151C189.65 132.152 189.792 132.156 189.933 132.178C190.074 132.2 190.235 132.215 190.404 132.24C190.574 132.255 190.735 132.27 190.907 132.266C191.068 132.271 191.231 132.267 191.375 132.251C191.529 132.237 191.665 132.202 191.786 132.136C191.906 132.071 192.009 131.985 192.096 131.869C192.183 131.753 192.245 131.587 192.274 131.371L192.63 129.232L189.814 128.767L189.959 127.894L196.541 128.977L196.032 132.073L196.034 132.045ZM193.013 131.733C193.015 131.924 193.047 132.098 193.11 132.247C193.173 132.395 193.275 132.528 193.417 132.637C193.551 132.744 193.744 132.819 193.979 132.859C194.307 132.917 194.597 132.867 194.839 132.718C195.082 132.568 195.231 132.287 195.297 131.873L195.656 129.696L193.356 129.317L193.057 131.147C193.019 131.353 193.012 131.543 193.004 131.732L193.013 131.733Z" fill="#1D1D1B"/>
<path d="M194.829 134.603L195.556 134.783L194.286 139.963L193.559 139.783L194.088 137.622L188.337 136.215L188.548 135.348L194.31 136.756L194.839 134.594L194.829 134.603Z" fill="#1D1D1B"/>
<path d="M186.769 141.578L187.045 140.736L189.637 141.58L194.188 140.355L193.859 141.353L190.213 142.271L192.623 145.118L192.307 146.08L189.35 142.431L186.758 141.586L186.769 141.578Z" fill="#1D1D1B"/>
<path d="M186.476 150.38L185.788 150.079L186.88 147.607L187.567 147.907L186.476 150.38Z" fill="#1D1D1B"/>
<path d="M185.815 159.549L185.162 159.185L186.876 156.14L185.027 155.096L183.527 157.77L182.874 157.406L184.374 154.732L181.708 153.234L182.14 152.463L187.962 155.734L185.814 159.558L185.815 159.549Z" fill="#1D1D1B"/>
<path d="M184.608 161.421L179.662 158.163L177.718 161.111L177.097 160.702L179.528 157.008L185.104 160.675L184.618 161.412L184.608 161.421Z" fill="#1D1D1B"/>
<path d="M180.488 163.972C180.731 164.336 180.906 164.724 180.993 165.132C181.08 165.54 181.079 165.968 180.983 166.397C180.887 166.827 180.676 167.255 180.353 167.674C180.029 168.092 179.668 168.393 179.269 168.595C178.869 168.797 178.46 168.893 178.04 168.902C177.62 168.912 177.207 168.846 176.792 168.685C176.377 168.533 175.997 168.317 175.632 168.036C175.276 167.757 174.971 167.434 174.719 167.068C174.466 166.702 174.301 166.316 174.214 165.908C174.127 165.5 174.127 165.081 174.224 164.642C174.32 164.213 174.53 163.784 174.854 163.366C175.178 162.947 175.539 162.647 175.938 162.445C176.337 162.252 176.747 162.147 177.167 162.137C177.587 162.128 178 162.194 178.414 162.355C178.829 162.507 179.21 162.722 179.575 163.003C179.931 163.283 180.235 163.606 180.488 163.972ZM178.167 163.19C177.855 163.057 177.538 162.98 177.215 162.97C176.892 162.96 176.582 163.018 176.275 163.142C175.968 163.276 175.69 163.499 175.442 163.819C175.194 164.139 175.041 164.459 174.983 164.787C174.924 165.115 174.943 165.431 175.039 165.745C175.125 166.057 175.28 166.347 175.475 166.613C175.679 166.879 175.915 167.119 176.181 167.334C176.448 167.539 176.738 167.708 177.05 167.841C177.362 167.974 177.679 168.051 178.002 168.061C178.325 168.071 178.635 168.013 178.943 167.879C179.25 167.745 179.528 167.523 179.776 167.202C180.024 166.882 180.177 166.563 180.235 166.234C180.294 165.906 180.275 165.59 180.179 165.277C180.093 164.964 179.937 164.684 179.734 164.408C179.529 164.142 179.294 163.901 179.027 163.687C178.76 163.482 178.47 163.313 178.158 163.179L178.167 163.19Z" fill="#1D1D1B"/>
<path d="M168.854 170.346L173.946 173.151L173.947 173.132L171.009 168.122L171.651 167.457L177.63 170.875L177 171.523L172.1 168.602L172.098 168.621L175.034 173.554L174.361 174.246L169.346 171.439L169.344 171.457L172.374 176.294L171.754 176.933L168.203 171.011L168.845 170.345L168.854 170.346Z" fill="#1D1D1B"/>
<path d="M166.319 181.431C165.795 181.85 165.283 182.033 164.803 181.97C164.312 181.916 163.88 181.639 163.496 181.147C163.112 180.655 162.946 180.173 163 179.683C163.054 179.192 163.352 178.743 163.875 178.333L165.476 177.069L163.784 174.925L164.481 174.379L168.619 179.611L166.32 181.422L166.319 181.431ZM164.572 178.739C164.172 179.046 163.944 179.359 163.897 179.669C163.84 179.978 163.945 180.292 164.193 180.6C164.441 180.918 164.722 181.077 165.035 181.096C165.347 181.115 165.704 180.966 166.094 180.658L167.459 179.582L165.937 177.663L164.572 178.739Z" fill="#1D1D1B"/>
<path d="M161.76 184.723L155.848 180.673L156.66 180.118L158.396 181.37L160.731 179.782L160.224 177.698L160.976 177.185L162.583 184.16L161.771 184.714L161.76 184.723ZM159.05 181.83L161.722 183.777L161.741 183.778L160.927 180.562L159.059 181.831L159.05 181.83Z" fill="#1D1D1B"/>
<path d="M155.951 188.263C155.398 188.575 154.884 188.681 154.425 188.591C153.957 188.492 153.592 188.211 153.33 187.74C153.133 187.389 153.032 187.037 153.045 186.676C153.059 186.315 153.212 185.996 153.505 185.699L153.507 185.68C153.311 185.738 153.138 185.76 152.996 185.748C152.845 185.734 152.716 185.684 152.589 185.615C152.462 185.547 152.356 185.451 152.252 185.337C152.148 185.223 152.045 185.099 151.952 184.967C151.859 184.835 151.776 184.694 151.685 184.552C151.593 184.411 151.501 184.269 151.397 184.145C151.295 184.012 151.191 183.898 151.077 183.793C150.963 183.687 150.836 183.609 150.698 183.558L151.561 183.075C151.645 183.101 151.734 183.166 151.811 183.259C151.889 183.352 151.964 183.464 152.039 183.585C152.114 183.706 152.196 183.846 152.288 183.988C152.38 184.13 152.473 184.262 152.585 184.396C152.687 184.529 152.791 184.643 152.895 184.757C152.999 184.872 153.116 184.949 153.235 185.007C153.353 185.066 153.494 185.088 153.638 185.082C153.781 185.076 153.949 185.015 154.139 184.908L156.027 183.841L154.623 181.361L155.396 180.927L158.681 186.739L155.949 188.282L155.951 188.263ZM154.294 185.722C154.15 185.843 154.033 185.975 153.953 186.12C153.873 186.265 153.84 186.424 153.843 186.605C153.845 186.786 153.905 186.973 154.028 187.184C154.193 187.475 154.413 187.667 154.681 187.758C154.95 187.849 155.269 187.792 155.631 187.586L157.549 186.503L156.408 184.476L154.801 185.387C154.621 185.485 154.458 185.594 154.314 185.715L154.294 185.722Z" fill="#1D1D1B"/>
<path d="M153.191 188.937L153.511 189.614L148.676 191.871L148.356 191.194L150.366 190.252L147.85 184.891L148.656 184.516L151.172 189.878L153.191 188.937Z" fill="#1D1D1B"/>
<path d="M142.685 187.033L143.514 186.717L144.483 189.272L148.291 192.046L147.304 192.423L144.308 190.161L143.604 193.821L142.658 194.173L143.645 189.586L142.676 187.032L142.685 187.033Z" fill="#1D1D1B"/>
<path d="M135.647 192.319L135.455 191.597L138.063 190.9L138.254 191.622L135.647 192.319Z" fill="#1D1D1B"/>
<path d="M128.082 197.558L127.958 196.823L131.402 196.249L131.048 194.16L128.02 194.666L127.896 193.931L130.924 193.425L130.417 190.407L131.297 190.258L132.397 196.834L128.073 197.557L128.082 197.558Z" fill="#1D1D1B"/>
<path d="M125.855 197.794L125.294 191.895L121.776 192.233L121.7 191.493L126.102 191.073L126.73 197.711L125.846 197.793L125.855 197.794Z" fill="#1D1D1B"/>
<path d="M121.29 196.18C121.156 196.606 120.96 196.979 120.701 197.308C120.433 197.636 120.105 197.901 119.715 198.095C119.316 198.297 118.859 198.398 118.325 198.397C117.792 198.397 117.333 198.307 116.93 198.128C116.528 197.939 116.188 197.689 115.923 197.361C115.657 197.032 115.442 196.669 115.309 196.248C115.166 195.825 115.101 195.391 115.094 194.942C115.088 194.485 115.146 194.052 115.28 193.626C115.404 193.199 115.609 192.827 115.868 192.498C116.136 192.17 116.464 191.914 116.854 191.711C117.244 191.509 117.71 191.417 118.244 191.409C118.778 191.4 119.236 191.499 119.639 191.678C120.042 191.867 120.381 192.117 120.647 192.436C120.914 192.756 121.128 193.127 121.261 193.549C121.404 193.971 121.469 194.406 121.476 194.854C121.483 195.312 121.424 195.745 121.29 196.171L121.29 196.18ZM120.44 193.884C120.345 193.561 120.21 193.263 120.014 193.007C119.828 192.752 119.58 192.539 119.289 192.389C118.999 192.23 118.643 192.159 118.243 192.161C117.842 192.163 117.492 192.245 117.2 192.409C116.909 192.574 116.671 192.781 116.485 193.049C116.299 193.309 116.167 193.611 116.081 193.937C115.994 194.262 115.954 194.601 115.961 194.935C115.969 195.269 116.015 195.607 116.11 195.93C116.204 196.253 116.339 196.551 116.535 196.807C116.722 197.062 116.969 197.274 117.26 197.425C117.552 197.575 117.907 197.655 118.307 197.653C118.707 197.651 119.059 197.559 119.349 197.404C119.64 197.24 119.878 197.033 120.065 196.764C120.25 196.505 120.382 196.203 120.469 195.877C120.556 195.552 120.596 195.213 120.588 194.878C120.58 194.544 120.535 194.207 120.449 193.885L120.44 193.884Z" fill="#1D1D1B"/>
<path d="M109.042 191.099L109.961 196.839L109.979 196.841L112.108 191.434L113.033 191.536L114.026 198.351L113.12 198.249L112.413 192.595L112.394 192.593L110.317 197.948L109.365 197.842L108.488 192.163L108.469 192.161L106.534 197.538L105.647 197.439L108.136 190.997L109.061 191.1L109.042 191.099Z" fill="#1D1D1B"/>
<path d="M98.8112 196.095C98.1574 195.95 97.6976 195.661 97.4397 195.247C97.1818 194.833 97.1138 194.322 97.2545 193.716C97.3952 193.11 97.6726 192.678 98.0875 192.41C98.5024 192.143 99.0402 192.097 99.6932 192.251L101.681 192.708L102.285 190.048L103.153 190.241L101.678 196.746L98.8207 196.096L98.8112 196.095ZM99.812 193.043C99.318 192.922 98.9348 192.944 98.6633 193.101C98.3919 193.257 98.2055 193.526 98.1223 193.918C98.0391 194.311 98.077 194.629 98.2636 194.884C98.4406 195.138 98.7861 195.322 99.2715 195.432L100.971 195.815L101.512 193.426L99.812 193.043Z" fill="#1D1D1B"/>
<path d="M93.4094 194.625L92.8555 187.489L93.7921 187.774L93.9036 189.908L96.6017 190.733L97.8993 189.032L98.7715 189.292L94.3451 194.919L93.4085 194.634L93.4094 194.625ZM93.9554 190.703L94.1137 194.003L94.1326 194.005L96.1156 191.365L93.9545 190.712L93.9554 190.703Z" fill="#1D1D1B"/>
<path d="M86.9779 192.318C86.3893 192.084 85.9811 191.751 85.7618 191.331C85.5426 190.912 85.5373 190.444 85.7356 189.939C85.8841 189.561 86.1014 189.267 86.3874 189.055C86.6735 188.843 87.0248 188.751 87.4398 188.798L87.4415 188.779C87.28 188.669 87.1571 188.553 87.0728 188.431C86.9886 188.309 86.9439 188.172 86.9181 188.036C86.8922 187.9 86.8965 187.748 86.9196 187.598C86.9428 187.448 86.9762 187.289 87.0192 187.131C87.0715 186.974 87.1239 186.817 87.1762 186.659C87.2286 186.502 87.2809 186.345 87.3144 186.186C87.3479 186.027 87.3719 185.868 87.3856 185.716C87.3993 185.565 87.3743 185.42 87.3304 185.273L88.2499 185.642C88.28 185.731 88.2903 185.827 88.2603 185.948C88.2397 186.07 88.2002 186.19 88.1496 186.329C88.0989 186.467 88.0474 186.615 87.9951 186.772C87.9427 186.929 87.8998 187.087 87.8655 187.255C87.832 187.414 87.7986 187.573 87.7849 187.724C87.7712 187.875 87.7772 188.019 87.8039 188.145C87.84 188.272 87.9054 188.392 87.9999 188.506C88.0945 188.619 88.2483 188.709 88.4502 188.794L90.4644 189.596L91.5237 186.949L92.3512 187.281L89.884 193.477L86.9684 192.317L86.9779 192.318ZM87.9255 189.432C87.7382 189.396 87.5672 189.39 87.4022 189.423C87.2373 189.456 87.0878 189.528 86.9538 189.639C86.8198 189.751 86.709 189.922 86.6129 190.142C86.4893 190.454 86.4722 190.748 86.5719 191.014C86.6622 191.28 86.9097 191.493 87.2964 191.642L89.3475 192.456L90.2103 190.296L88.4909 189.607C88.2975 189.533 88.1119 189.478 87.9255 189.432Z" fill="#1D1D1B"/>
<path d="M84.7132 190.579L84.3852 191.255L79.5954 188.906L79.9234 188.231L81.9213 189.212L84.528 183.896L85.322 184.282L82.7153 189.598L84.7132 190.579Z" fill="#1D1D1B"/>
<path d="M79.635 181.214L80.4042 181.664L79.0191 184.015L79.2406 188.721L78.3271 188.181L78.2193 184.428L74.9267 186.168L74.0587 185.652L78.2603 183.556L79.6454 181.205L79.635 181.214Z" fill="#1D1D1B"/>
<path d="M71.0941 179.031L71.5398 178.423L73.7201 180.021L73.2752 180.619L71.095 179.021L71.0941 179.031Z" fill="#1D1D1B"/>
<path d="M62.2702 176.421L62.7683 175.866L65.3784 178.188L66.7895 176.602L64.4966 174.565L64.9947 174.011L67.2877 176.047L69.324 173.765L69.9849 174.358L65.5506 179.337L62.2797 176.422L62.2702 176.421Z" fill="#1D1D1B"/>
<path d="M60.6864 174.84L64.9302 170.7L62.4627 168.172L62.9961 167.649L66.0824 170.814L61.3052 175.477L60.6864 174.84Z" fill="#1D1D1B"/>
<path d="M59.0832 170.275C58.6777 170.438 58.2602 170.524 57.8409 170.524C57.4216 170.524 57.0109 170.43 56.6079 170.25C56.2057 170.062 55.8319 169.771 55.4975 169.359C55.1632 168.948 54.9345 168.527 54.8304 168.099C54.7263 167.67 54.7073 167.249 54.7922 166.838C54.8677 166.426 55.0274 166.031 55.2704 165.662C55.5134 165.294 55.8011 164.958 56.1516 164.666C56.502 164.374 56.8843 164.151 57.2897 163.988C57.6952 163.825 58.1128 163.739 58.532 163.739C58.9513 163.739 59.362 163.833 59.7642 164.022C60.1663 164.211 60.5307 164.501 60.8745 164.913C61.2183 165.325 61.4384 165.736 61.5425 166.164C61.6466 166.593 61.6656 167.013 61.5902 167.426C61.5147 167.838 61.355 168.233 61.112 168.601C60.869 168.97 60.5813 169.306 60.2317 169.588C59.8812 169.88 59.499 170.103 59.0935 170.266L59.0832 170.275ZM60.3412 168.17C60.5378 167.892 60.6786 167.6 60.7636 167.294C60.8486 166.987 60.8588 166.664 60.7934 166.334C60.728 166.005 60.5663 165.685 60.3085 165.376C60.0506 165.067 59.7653 164.851 59.4534 164.718C59.1415 164.585 58.8304 164.547 58.5048 164.565C58.1886 164.584 57.8665 164.669 57.5581 164.812C57.2497 164.956 56.9671 165.13 56.7094 165.345C56.4517 165.56 56.2198 165.806 56.0232 166.083C55.8265 166.36 55.6857 166.652 55.6102 166.96C55.5252 167.266 55.515 167.589 55.5804 167.919C55.6458 168.249 55.8075 168.568 56.0653 168.877C56.3232 169.186 56.6085 169.403 56.9204 169.536C57.2323 169.669 57.5434 169.707 57.869 169.688C58.1851 169.67 58.5073 169.584 58.8157 169.441C59.1241 169.297 59.4067 169.123 59.6644 168.908C59.9221 168.694 60.154 168.448 60.3506 168.17L60.3412 168.17Z" fill="#1D1D1B"/>
<path d="M55.3168 157.552L51.4906 161.92L51.4889 161.938L57.0283 160.116L57.5397 160.887L52.9311 166.003L52.4274 165.252L56.3301 161.091L56.3318 161.072L50.868 162.901L50.3308 162.1L54.1415 157.798L54.1433 157.779L48.7552 159.719L48.26 158.979L54.8062 156.772L55.3177 157.542L55.3168 157.552Z" fill="#1D1D1B"/>
<path d="M45.0356 152.715C44.7381 152.108 44.6718 151.578 44.828 151.116C44.9842 150.654 45.351 150.287 45.9094 150.014C46.4677 149.74 46.9781 149.682 47.4498 149.839C47.9121 149.995 48.2963 150.382 48.5843 150.989L49.4759 152.823L51.9284 151.626L52.3136 152.423L46.3123 155.346L45.0262 152.715L45.0356 152.715ZM48.0441 151.588C47.8283 151.13 47.5782 150.841 47.2834 150.729C46.9895 150.607 46.6622 150.644 46.304 150.811C45.9449 150.988 45.7233 151.225 45.6392 151.523C45.5551 151.82 45.6257 152.198 45.8415 152.655L46.605 154.22L48.8084 153.143L48.0449 151.579L48.0441 151.588Z" fill="#1D1D1B"/>
<path d="M42.8031 147.599L48.0218 142.69L48.3873 143.6L46.7905 145.026L47.8396 147.645L49.9789 147.592L50.322 148.432L43.1591 148.507L42.7937 147.598L42.8031 147.599ZM46.2082 145.564L43.7319 147.759L43.7302 147.778L47.0466 147.669L46.1979 145.573L46.2082 145.564Z" fill="#1D1D1B"/>
<path d="M40.5593 141.128C40.3761 140.521 40.3759 139.997 40.5674 139.567C40.7588 139.137 41.1196 138.836 41.6299 138.673C42.0216 138.556 42.3851 138.541 42.7305 138.62C43.075 138.709 43.3603 138.925 43.5856 139.279L43.6045 139.28C43.5846 139.079 43.6 138.909 43.6507 138.77C43.7013 138.632 43.77 138.505 43.8654 138.399C43.9607 138.294 44.0732 138.209 44.2047 138.125C44.3352 138.051 44.4752 137.978 44.6239 137.916C44.7725 137.853 44.9297 137.8 45.0878 137.739C45.245 137.686 45.403 137.624 45.5431 137.551C45.6925 137.479 45.824 137.396 45.9554 137.312C46.0774 137.228 46.1821 137.123 46.2603 136.997L46.5553 137.948C46.5098 138.029 46.4273 138.098 46.3268 138.156C46.2169 138.212 46.0975 138.268 45.96 138.313C45.8225 138.358 45.6748 138.411 45.5167 138.473C45.3587 138.535 45.21 138.597 45.0606 138.669C44.9111 138.742 44.7711 138.815 44.6491 138.899C44.5177 138.982 44.4146 139.068 44.3373 139.185C44.2609 139.292 44.2016 139.42 44.1793 139.561C44.1571 139.702 44.1786 139.885 44.2362 140.09L44.8778 142.158L47.6029 141.319L47.8592 142.171L41.4779 144.136L40.5584 141.138L40.5593 141.128ZM43.4002 140.062C43.3203 139.893 43.2094 139.749 43.0856 139.643C42.9619 139.537 42.8064 139.465 42.6379 139.431C42.4695 139.397 42.2676 139.416 42.0331 139.481C41.7101 139.575 41.4756 139.745 41.3296 139.989C41.1836 140.233 41.1743 140.546 41.2904 140.947L41.938 143.053L44.1631 142.369L43.6178 140.606C43.5593 140.41 43.4811 140.222 43.4011 140.053L43.4002 140.062Z" fill="#1D1D1B"/>
<path d="M40.5014 138.285L39.7721 138.447L38.6045 133.246L39.3338 133.083L39.8234 135.252L45.6009 133.956L45.7988 134.822L40.0213 136.117L40.5109 138.285L40.5014 138.285Z" fill="#1D1D1B"/>
<path d="M44.6215 128.467L44.7515 129.346L42.0479 129.739L38.516 132.857L38.3627 131.815L41.2229 129.378L37.7926 127.906L37.6445 126.911L41.917 128.87L44.6207 128.477L44.6215 128.467Z" fill="#1D1D1B"/>
<path d="M40.9632 120.44L41.7098 120.403L41.8276 123.1L41.081 123.137L40.9632 120.44Z" fill="#1D1D1B"/>
<path d="M37.4662 111.951L38.2154 111.991L38.0421 115.48L40.1574 115.586L40.3111 112.523L41.0603 112.563L40.9067 115.625L43.9611 115.778L43.9184 116.669L37.2494 116.341L37.4653 111.961L37.4662 111.951Z" fill="#1D1D1B"/>
<path d="M37.7019 109.744L43.584 110.449L44.0064 106.944L44.7514 107.03L44.2296 111.421L37.593 110.63L37.7019 109.744Z" fill="#1D1D1B"/>
<path d="M40.2549 105.603C39.8742 105.388 39.5459 105.12 39.2803 104.791C39.0148 104.462 38.8299 104.084 38.7164 103.654C38.6028 103.225 38.6078 102.749 38.7116 102.235C38.8154 101.72 39.0077 101.281 39.2688 100.923C39.5393 100.567 39.8588 100.301 40.2299 100.096C40.6002 99.901 41.0022 99.7755 41.4447 99.7299C41.8871 99.6843 42.3236 99.7048 42.773 99.7931C43.2223 99.8815 43.6374 100.033 44.0181 100.249C44.4082 100.465 44.727 100.732 44.9926 101.061C45.2582 101.39 45.4431 101.769 45.5472 102.197C45.6513 102.626 45.6557 103.102 45.5519 103.617C45.4473 104.14 45.2653 104.572 44.9948 104.928C44.7242 105.285 44.4133 105.561 44.0431 105.756C43.6728 105.951 43.2708 106.077 42.8283 106.122C42.3859 106.168 41.9494 106.147 41.5 106.059C41.0506 105.971 40.6356 105.819 40.2549 105.603ZM42.6777 105.261C43.0127 105.244 43.3341 105.168 43.6227 105.032C43.9113 104.897 44.1664 104.71 44.3803 104.453C44.5941 104.196 44.7375 103.876 44.8216 103.474C44.9048 103.082 44.8901 102.718 44.7946 102.405C44.6991 102.092 44.5341 101.81 44.3175 101.571C44.1009 101.333 43.8414 101.147 43.5312 100.995C43.2209 100.843 42.9159 100.739 42.5791 100.671C42.2423 100.602 41.9106 100.582 41.5755 100.599C41.2405 100.616 40.9192 100.692 40.6305 100.828C40.3324 100.963 40.0868 101.15 39.8729 101.407C39.6591 101.663 39.5157 101.984 39.4316 102.386C39.3476 102.788 39.3631 103.141 39.4586 103.455C39.5532 103.778 39.7097 104.049 39.9357 104.289C40.1523 104.527 40.4119 104.713 40.7221 104.865C41.0323 105.017 41.3468 105.121 41.6741 105.189C42.0015 105.257 42.3426 105.278 42.6777 105.261Z" fill="#1D1D1B"/>
<path d="M47.7949 94.6866L41.9851 94.4459L41.9834 94.4648L46.8619 97.6213L46.5821 98.5007L39.6992 98.1151L39.9678 97.2537L45.6557 97.6834L45.6574 97.6645L40.821 94.569L41.1136 93.6526L46.8547 93.9157L46.8564 93.8968L41.9797 90.9309L42.2466 90.0884L48.0756 93.7977L47.7958 94.6772L47.7949 94.6866Z" fill="#1D1D1B"/>
<path d="M45.1187 83.6528C45.4029 83.0405 45.7808 82.6557 46.2439 82.4881C46.7069 82.3205 47.2164 82.3762 47.7835 82.6371C48.3498 82.9075 48.7177 83.2647 48.8854 83.7275C49.053 84.1903 48.9957 84.7185 48.702 85.33L47.8297 87.1749L50.2968 88.3414L49.919 89.1453L43.8781 86.3025L45.1282 83.6537L45.1187 83.6528ZM47.8866 85.2847C48.109 84.8286 48.1716 84.4533 48.0753 84.1494C47.9884 83.8462 47.7521 83.6153 47.3963 83.4402C47.0397 83.2745 46.7089 83.2445 46.4211 83.3709C46.1333 83.4972 45.8791 83.7789 45.6662 84.2358L44.9235 85.8067L47.1354 86.8453L47.8781 85.2744L47.8866 85.2847Z" fill="#1D1D1B"/>
<path d="M47.7203 78.6978L54.8148 79.6931L54.3374 80.5451L52.2254 80.1918L50.8404 82.6474L52.2259 84.2873L51.7829 85.0757L47.2437 79.5403L47.7212 78.6883L47.7203 78.6978ZM51.435 80.0821L48.1785 79.5298L48.1768 79.5487L50.3316 82.0584L51.4436 80.0924L51.435 80.0821Z" fill="#1D1D1B"/>
<path d="M51.3651 72.9133C51.7181 72.3833 52.1278 72.0681 52.5874 71.9383C53.047 71.8085 53.505 71.9072 53.9536 72.2145C54.2853 72.4446 54.5277 72.7141 54.679 73.0422C54.8303 73.3702 54.8365 73.7231 54.7051 74.1208L54.724 74.1225C54.8597 73.9919 55.0015 73.9 55.1398 73.8459C55.2781 73.7917 55.4224 73.7762 55.5651 73.7796C55.7068 73.7925 55.8469 73.8242 55.9947 73.8757C56.1425 73.9272 56.2791 73.9967 56.4243 74.0766C56.5696 74.1564 56.7045 74.2448 56.8488 74.3341C56.9932 74.4234 57.1384 74.5032 57.2845 74.5736C57.4306 74.644 57.5775 74.7049 57.7262 74.747C57.8748 74.789 58.0166 74.8018 58.161 74.7863L57.601 75.6023C57.5048 75.6126 57.4112 75.5946 57.3012 75.5466C57.1912 75.4985 57.0726 75.4401 56.9463 75.362C56.8199 75.2839 56.6842 75.2049 56.5492 75.1165C56.4049 75.0272 56.2597 74.9474 56.1033 74.8856C55.9572 74.8152 55.8102 74.7543 55.6719 74.7036C55.5336 74.653 55.3926 74.6307 55.2586 74.6376C55.1246 74.6445 54.988 74.6798 54.8669 74.7545C54.7363 74.8284 54.6109 74.9504 54.4898 75.1299L53.2695 76.9242L55.6302 78.5286L55.1347 79.2647L49.6141 75.5167L51.3746 72.9141L51.3651 72.9133ZM53.9792 74.455C54.0617 74.2815 54.096 74.1132 54.1019 73.9423C54.1079 73.7714 54.0649 73.6151 53.9935 73.4563C53.9127 73.2965 53.7735 73.1506 53.5758 73.0184C53.2974 72.8312 53.019 72.7489 52.7389 72.7902C52.4597 72.822 52.2037 73.0179 51.9633 73.358L50.7215 75.1789L52.6516 76.4872L53.6864 74.9523C53.7972 74.7814 53.8985 74.6096 53.981 74.4361L53.9792 74.455Z" fill="#1D1D1B"/>
<path d="M53.5284 71.1097L52.9414 70.647L56.2642 66.4717L56.8511 66.9344L55.4641 68.6755L60.104 72.3628L59.5552 73.056L54.9154 69.3687L53.5284 71.1097Z" fill="#1D1D1B"/>
<path d="M63.7824 68.1432L63.1803 68.7934L61.1761 66.9355L56.5312 66.1431L57.2492 65.3701L60.9404 66.0665L59.9418 62.471L60.628 61.7332L61.7877 66.2861L63.7919 68.144L63.7824 68.1432Z" fill="#1D1D1B"/>
<path d="M67.7431 60.2543L68.2355 60.8132L66.2059 62.6008L65.7134 62.0419L67.7431 60.2543Z" fill="#1D1D1B"/>
<path d="M72.1663 52.2069L72.6072 52.8088L69.7812 54.8671L71.0267 56.58L73.5057 54.776L73.9467 55.3779L71.4677 57.1819L73.2642 59.6496L72.5495 60.1753L68.6265 54.7815L72.1757 52.2077L72.1663 52.2069Z" fill="#1D1D1B"/>
<path d="M74.0376 50.9956L77.1847 56.0144L80.1843 54.1433L80.584 54.7795L76.8362 57.1257L73.2989 51.4716L74.0565 50.9973L74.0376 50.9956Z" fill="#1D1D1B"/>
<path d="M78.8553 50.3938C78.7804 49.9584 78.7897 49.5402 78.8746 49.1288C78.9595 48.7175 79.1373 48.3336 79.4078 47.9771C79.6783 47.6206 80.0391 47.32 80.509 47.0768C80.9788 46.8337 81.4385 46.7039 81.8775 46.6961C82.3165 46.6882 82.7384 46.7646 83.1242 46.9233C83.5092 47.0916 83.8598 47.3234 84.1744 47.6376C84.4889 47.9518 84.7425 48.3082 84.954 48.7083C85.1655 49.1084 85.3082 49.5309 85.3737 49.9654C85.4391 50.4 85.4393 50.819 85.3543 51.2304C85.2694 51.6418 85.0822 52.0248 84.822 52.3727C84.5523 52.7197 84.1821 53.0195 83.7123 53.2627C83.2424 53.5058 82.7827 53.6356 82.3429 53.6529C81.903 53.6702 81.4905 53.5947 81.0961 53.4256C80.7112 53.2574 80.3605 53.0256 80.046 52.7114C79.7314 52.3971 79.4778 52.0408 79.2664 51.6407C79.0549 51.2405 78.9121 50.818 78.8467 50.3835L78.8553 50.3938ZM80.6377 52.0697C80.8629 52.3187 81.1207 52.523 81.4129 52.6638C81.6948 52.8132 82.0118 52.8895 82.3452 52.8911C82.6777 52.9022 83.0291 52.8103 83.389 52.6238C83.7489 52.4374 84.0178 52.2046 84.2136 51.9366C84.4094 51.6686 84.5132 51.3637 84.5613 51.0443C84.6093 50.7248 84.5911 50.3993 84.5257 50.0696C84.4509 49.7389 84.3365 49.4238 84.1826 49.1241C84.0287 48.8245 83.8344 48.5497 83.6092 48.3007C83.3841 48.0517 83.1262 47.8474 82.8341 47.7066C82.5522 47.5573 82.2352 47.4809 81.9018 47.4793C81.5693 47.4682 81.2179 47.5602 80.858 47.7466C80.4981 47.933 80.2292 48.1658 80.0334 48.4338C79.8376 48.7018 79.7337 49.0067 79.6857 49.3262C79.6377 49.6456 79.6559 49.9711 79.7213 50.3009C79.7961 50.6315 79.9105 50.9466 80.0644 51.2463C80.2183 51.546 80.4126 51.8207 80.6377 52.0697Z" fill="#1D1D1B"/>
<path d="M92.0614 49.4386L88.606 44.7728L88.5871 44.7711L89.187 50.5591L88.3279 50.8908L84.3086 45.2977L85.1582 44.9652L88.3919 49.6584L88.4108 49.6601L87.7861 43.9366L88.6846 43.5894L92.0765 48.2208L92.0954 48.2225L91.3417 42.5539L92.1716 42.2291L92.9316 49.0888L92.0726 49.4205L92.0614 49.4386Z" fill="#1D1D1B"/>
<path d="M99.0168 40.4298C99.6697 40.2699 100.208 40.3187 100.623 40.5754C101.039 40.832 101.324 41.2579 101.469 41.8616C101.615 42.4653 101.558 42.984 101.311 43.3997C101.053 43.824 100.599 44.1067 99.9468 44.2571L97.9691 44.7351L98.6152 47.3842L97.7484 47.5914L96.1826 41.1063L99.0271 40.4212L99.0168 40.4298ZM99.4818 43.6054C99.9775 43.4979 100.309 43.3089 100.485 43.0487C100.661 42.7884 100.7 42.4681 100.611 42.0791C100.513 41.6892 100.337 41.4256 100.055 41.2763C99.7825 41.1278 99.3933 41.1115 98.9062 41.2293L97.2206 41.6385L97.7962 44.0146L99.4818 43.6054Z" fill="#1D1D1B"/>
<path d="M104.506 39.3462L108.179 45.4984L107.212 45.6584L106.16 43.8011L103.374 44.2629L102.964 46.3688L102.074 46.5167L103.538 39.5062L104.506 39.3462ZM105.756 43.1073L104.15 40.2188L104.131 40.2171L103.531 43.4771L105.766 43.1082L105.756 43.1073Z" fill="#1D1D1B"/>
<path d="M111.288 38.5514C111.922 38.504 112.426 38.6164 112.81 38.8989C113.194 39.1813 113.405 39.5909 113.451 40.1285C113.482 40.5312 113.42 40.8971 113.267 41.2166C113.105 41.5352 112.836 41.768 112.442 41.9132L112.44 41.9321C112.638 41.9501 112.805 42.0033 112.931 42.0814C113.058 42.1596 113.163 42.2549 113.249 42.3673C113.334 42.4798 113.398 42.6095 113.442 42.7563C113.486 42.9032 113.529 43.0594 113.562 43.2149C113.586 43.3789 113.609 43.5429 113.632 43.7069C113.655 43.871 113.679 44.035 113.721 44.2007C113.764 44.357 113.807 44.5133 113.861 44.6515C113.925 44.7906 113.999 44.9211 114.104 45.0164L113.115 45.0983C113.045 45.0347 112.996 44.9446 112.968 44.8278C112.941 44.711 112.914 44.5848 112.889 44.4396C112.864 44.2945 112.85 44.1408 112.837 43.9682C112.813 43.8042 112.781 43.6393 112.738 43.483C112.695 43.3267 112.652 43.1704 112.607 43.033C112.554 42.8853 112.488 42.7651 112.402 42.6621C112.316 42.5591 112.2 42.4818 112.061 42.4312C111.923 42.3805 111.754 42.3557 111.532 42.3832L109.372 42.5589L109.601 45.3988L108.717 45.4712L108.177 38.8218L111.306 38.5626L111.288 38.5514ZM111.722 41.5527C111.907 41.5029 112.066 41.4316 112.199 41.3293C112.332 41.2271 112.43 41.0931 112.501 40.9377C112.573 40.7822 112.601 40.5752 112.575 40.3348C112.548 39.999 112.43 39.7311 112.228 39.5414C112.027 39.3422 111.71 39.2658 111.297 39.2951L109.099 39.4769L109.288 41.7989L111.131 41.6516C111.333 41.6318 111.526 41.6017 111.711 41.5613L111.722 41.5527Z" fill="#1D1D1B"/>
<path d="M114.06 39.1073L114.051 38.3636L119.39 38.3332L119.399 39.0768L117.178 39.0851L117.213 45.0124L116.326 45.0177L116.292 39.0905L114.071 39.0987L114.06 39.1073Z" fill="#1D1D1B"/>
<path d="M122.801 45.2331L121.911 45.1715L122.101 42.4457L119.805 38.3328L120.856 38.4089L122.624 41.7217L124.805 38.6811L125.808 38.753L122.991 42.5074L122.801 45.2331Z" fill="#1D1D1B"/>
<path d="M131.425 43.3576L131.301 44.0987L128.635 43.6477L128.76 42.9065L131.425 43.3576Z" fill="#1D1D1B"/>
</g>
<defs>
<clipPath id="clip0_2350_428">
<rect width="160" height="160" fill="white" transform="translate(44.7656 31.4087) rotate(5.17814)"/>
</clipPath>
</defs>
</svg>
